<svg width="1024" height="469" viewBox="0 0 1024 469" fill="none" xmlns="http://www.w3.org/2000/svg">
<path fill-rule="evenodd" clip-rule="evenodd" d="M143 1.52656C133.16 3.06956 119.69 7.13656 112.5 10.7356C96.149 18.9206 79.457 36.2136 70.254 54.4996C58.206 78.4416 54.798 120.238 62.439 150.358C71.907 187.682 96.646 213.179 132.571 222.639C141.042 224.87 145.218 225.322 161 225.72C177.199 226.128 180.796 225.919 189.923 224.039C245.118 212.669 275.284 166.179 270.04 100.563C266.876 60.9716 250.627 31.8346 222.109 14.6196C201.71 2.30656 170.728 -2.82244 143 1.52656ZM305 113.421V223H327H349V181.5V140L373.25 139.999C399.075 139.998 415.753 138.872 425.5 136.471C446.767 131.231 464.348 113.872 470.134 92.3986C472.911 82.0936 473.15 61.9296 470.618 51.4996C465.073 28.6546 448.046 11.6106 425.5 6.33556C419.581 4.95156 409.732 4.63156 361.75 4.26956L305 3.84156V113.421ZM509 113.421V223H531H553V181.621V140.242L584.25 139.723C625.167 139.045 633.919 137.455 648.251 128.099C669.137 114.464 679.143 90.5656 675.985 61.8596C673.377 38.1656 662.089 20.6446 643.5 11.4396C630.261 4.88456 628.755 4.74556 565.75 4.26956L509 3.84156V113.421ZM751.915 6.73156C751.338 8.25356 732.475 56.7496 709.997 114.5C687.519 172.25 668.827 220.287 668.457 221.25C667.83 222.886 669.315 223 691.257 223H714.728L723.73 198.25L732.731 173.5H776.595H820.458L829.976 198.25L839.493 223H863.247C876.311 223 887 222.66 887 222.245C887 221.83 867.47 172.668 843.6 112.995L800.2 4.49956L776.582 4.23156L752.964 3.96356L751.915 6.73156ZM910 113.5V223H932H954V113.5V3.99956H932H910V113.5ZM179.824 39.5196C202.823 44.9416 217.69 62.1076 223.111 89.4996C224.952 98.7986 224.942 126.274 223.096 135.5C219.609 152.919 213.719 164.415 203.469 173.807C192.267 184.072 180.49 188.422 164 188.385C135.847 188.323 114.181 170.311 107 141C102.781 123.779 103.337 95.8426 108.214 80.0326C115.078 57.7826 131.942 42.2156 153 38.6906C158.996 37.6866 174.018 38.1516 179.824 39.5196ZM406.598 43.3356C422.374 48.4446 430.438 64.6596 425.556 81.4556C423.337 89.0886 415.824 96.9006 408.3 99.3996C400.934 101.847 388.156 102.962 367.25 102.982L349 103V71.9026V40.8056L375.25 41.2456C396.008 41.5936 402.566 42.0306 406.598 43.3356ZM604 42.0556C615.35 43.8726 623.519 49.3546 628.218 58.3056C630 61.7006 630.427 64.2136 630.46 71.4996C630.496 79.6386 630.217 81.0096 627.546 85.8326C619.865 99.6996 609.207 102.947 571.25 102.983L553 103V71.9996V40.9996L575.25 41.0076C587.487 41.0116 600.425 41.4826 604 42.0556ZM791 95.1656C798.975 116.696 805.65 134.691 805.833 135.156C806.017 135.62 792.854 136 776.583 136C760.313 136 747 135.662 747 135.25C746.999 133.864 775.494 56.0106 776 56.0156C776.275 56.0176 783.025 73.6356 791 95.1656ZM0 264.936C0 265.451 2.702 274.114 6.004 284.186C17.898 320.469 36.67 352.275 62.463 379.846C97.044 416.809 132.865 440.499 175.424 454.549C202.801 463.587 229.691 467.95 262.838 468.731C317.719 470.025 370.96 455.254 414.357 426.695C451.267 402.404 486.929 364.396 505.551 329.5C512.632 316.231 511.357 316.421 517.856 327.659C541.241 368.097 572.507 401.954 608 425.274C631.3 440.583 668.272 456.118 695.15 461.891C728.889 469.139 766.467 470.509 799.964 465.713C832.261 461.089 854.227 454.382 882.5 440.513C909.7 427.169 931.28 411.82 951.65 391.326C984.182 358.596 1011.08 313.712 1021.52 274.722C1022.88 269.65 1024 265.387 1024 265.25C1024 265.113 1011.51 265 996.242 265H968.484L965.038 275.18C960.629 288.206 949.954 309.954 942.302 321.5C914.875 362.887 868.578 396.772 820.5 410.646C799.195 416.794 788.256 418.282 763.5 418.397C734.138 418.534 713.043 415.279 686.301 406.486C624.72 386.235 580.934 343.712 554.037 278.039C551.23 271.185 548.386 265.229 547.717 264.804C546.355 263.939 480.646 263.719 477.482 264.569C476.01 264.965 474.702 267.325 472.64 273.306C465.706 293.417 454.132 315.255 441.18 332.665C432.547 344.269 412.906 363.864 401 372.752C359.012 404.095 315.951 418.233 262.5 418.225C227.505 418.22 201.297 411.954 167.5 395.511C143.477 383.824 126.774 371.767 108.433 352.871C88.105 331.929 71.661 305.798 60.032 275.959C57.816 270.272 55.439 265.262 54.751 264.825C52.949 263.681 0 263.788 0 264.936ZM259.332 285.79C241.208 292.267 233.976 312.379 244.099 328.155C256.36 347.261 283.483 345.945 294.231 325.723C296.051 322.3 296.476 319.891 296.474 313C296.472 305.715 296.088 303.768 293.785 299.38C287.373 287.162 272.22 281.185 259.332 285.79ZM760.5 285.969C753.274 288.842 748.568 293.175 745.071 300.174C732.549 325.233 759.998 351.852 784.303 338.218C804.217 327.046 804.023 298.495 783.958 287.574C776.936 283.752 767.669 283.118 760.5 285.969Z" fill="white"/>
</svg>
